HIERARCHY
ROOT Hips
{
 OFFSET 0.000000 0.000000 0.000000
 CHANNELS 6 Xposition Yposition Zposition Yrotation Xrotation Zrotation
 JOINT Chest
 {
  OFFSET 0.000000 9.585900 0.002600
  CHANNELS 3 Yrotation Xrotation Zrotation
  JOINT Chest2
  {
   OFFSET 0.000000 9.601200 -0.005300
   CHANNELS 3 Yrotation Xrotation Zrotation
   JOINT Chest3
   {
    OFFSET 0.000000 9.561800 0.000000
    CHANNELS 3 Yrotation Xrotation Zrotation
    JOINT Chest4
    {
     OFFSET 0.000000 9.552100 0.000000
     CHANNELS 3 Yrotation Xrotation Zrotation
     JOINT Neck
     {
      OFFSET 0.000000 14.453000 0.000000
      CHANNELS 3 Yrotation Xrotation Zrotation
      JOINT Head
      {
       OFFSET 0.000000 8.936500 -0.011300
       CHANNELS 3 Yrotation Xrotation Zrotation
       End Site
       {
        OFFSET 0.000000 17.073600 -0.006000
       }
      }
     }
     JOINT RightCollar
     {
      OFFSET -2.921100 9.558500 0.000000
      CHANNELS 3 Yrotation Xrotation Zrotation
      JOINT RightShoulder
      {
       OFFSET -13.519700 0.000000 0.000000
       CHANNELS 3 Yrotation Xrotation Zrotation
       JOINT RightElbow
       {
        OFFSET 0.000000 -29.696600 0.000000
        CHANNELS 3 Yrotation Xrotation Zrotation
        JOINT RightWrist
        {
         OFFSET 0.000000 -24.004700 0.000000
         CHANNELS 3 Yrotation Xrotation Zrotation
         End Site
         {
          OFFSET 0.000000 -17.728500 0.000000
         }
        }
       }
      }
     }
     JOINT LeftCollar
     {
      OFFSET 2.921100 9.558500 0.000000
      CHANNELS 3 Yrotation Xrotation Zrotation
      JOINT LeftShoulder
      {
       OFFSET 13.519700 0.000000 0.000000
       CHANNELS 3 Yrotation Xrotation Zrotation
       JOINT LeftElbow
       {
        OFFSET 0.000000 -29.696600 0.000000
        CHANNELS 3 Yrotation Xrotation Zrotation
        JOINT LeftWrist
        {
         OFFSET 0.000000 -24.004700 0.000000
         CHANNELS 3 Yrotation Xrotation Zrotation
         End Site
         {
          OFFSET 0.000000 -17.728500 0.000000
         }
        }
       }
      }
     }
    }
   }
  }
 }
 JOINT RightHip
 {
  OFFSET -7.771700 -0.012900 -0.001300
  CHANNELS 3 Yrotation Xrotation Zrotation
  JOINT RightKnee
  {
   OFFSET 0.000000 -40.869800 0.001200
   CHANNELS 3 Yrotation Xrotation Zrotation
   JOINT RightAnkle
   {
    OFFSET 0.000000 -39.717900 0.002100
    CHANNELS 3 Yrotation Xrotation Zrotation
    JOINT RightToe
    {
     OFFSET 0.000000 -4.965400 11.033500
     CHANNELS 3 Yrotation Xrotation Zrotation
     End Site
     {
      OFFSET 0.000000 -1.423100 5.872300
     }
    }
   }
  }
 }
 JOINT LeftHip
 {
  OFFSET 7.771700 -0.012900 -0.001300
  CHANNELS 3 Yrotation Xrotation Zrotation
  JOINT LeftKnee
  {
   OFFSET 0.000000 -40.869800 0.001200
   CHANNELS 3 Yrotation Xrotation Zrotation
   JOINT LeftAnkle
   {
    OFFSET 0.000000 -39.717900 0.002100
    CHANNELS 3 Yrotation Xrotation Zrotation
    JOINT LeftToe
    {
     OFFSET 0.000000 -4.965400 11.033500
     CHANNELS 3 Yrotation Xrotation Zrotation
     End Site
     {
      OFFSET 0.000000 -1.423100 5.872300
     }
    }
   }
  }
 }
}
MOTION
Frames: 5
Frame Time: 0.008333
0.000000 85.388000 0.000000 0.000000 -5.767877 0.000000 0.000000 11.653817 0.000000 0.000000 -5.885947 0.000000 0.000000 -0.000000 0.000000 0.000000 -0.000000 0.000000 0.000000 12.528835 0.000000 0.000000 0.711642 0.000000 0.000000 -0.000000 0.000000 0.000000 0.000000 -90.000000 0.000000 -2.309062 0.000000 0.000000 2.309062 0.000000 0.000000 -0.000000 0.000000 0.000000 -0.000000 90.000000 0.000000 -2.309062 0.000000 0.000000 2.309062 0.000000 0.000000 8.520406 0.000000 0.000000 1.905762 0.000000 -0.000000 -4.658285 0.000000 0.000000 -0.000000 0.000000 0.000000 8.520406 0.000000 0.000000 1.905762 0.000000 -0.000000 -4.658285 0.000000 0.000000 -0.000000 0.000000
-45.145437 46.516027 12.218668 177.179544 -31.393409 -3.456459 -0.290365 18.982859 1.095228 -0.077589 2.267515 0.182499 -0.094403 3.702096 0.269260 -0.287196 16.500469 1.168386 -6.479797 22.031973 0.474295 -11.836714 5.368562 2.588160 -0.073472 2.336855 -2.382542 6.227693 -8.221220 -15.721071 -54.000862 -62.304456 101.641390 -1.844390 4.347389 -20.286669 -0.736752 0.773097 1.138416 -3.803820 -3.661209 15.234377 78.242359 -70.380482 -116.616752 -2.050197 14.096745 10.292922 -3.630920 -55.753218 -7.690325 -154.818397 79.707156 -145.607918 -8.756823 -12.411844 -5.909468 -0.062566 -0.231586 -0.016870 0.384589 -57.776158 11.045488 -111.126327 81.556163 -115.584924 4.223769 -6.321594 6.189478 0.198551 0.225449 0.121101
-45.148269 46.516075 12.225606 177.151904 -31.365920 -3.448919 -0.307085 19.000053 1.126539 -0.060195 2.247329 0.166591 -0.095849 3.706936 0.273692 -0.295511 16.519844 1.198479 -6.406356 21.965300 0.503883 -11.717554 5.265911 2.649312 -0.063680 2.327501 -2.385122 6.215982 -8.143980 -15.707549 -53.925100 -62.291913 101.610489 -1.886549 4.375313 -20.370555 -0.726774 0.752835 1.124501 -3.815195 -3.566763 15.214350 78.145266 -70.380083 -116.511608 -2.035584 14.127426 10.304628 -3.603891 -55.781454 -7.676613 -154.785535 79.735039 -145.587284 -8.766989 -12.384783 -5.886991 -0.070868 -0.230132 -0.025997 0.436725 -57.808722 11.034673 -111.074735 81.554235 -115.522883 4.218379 -6.310058 6.199886 0.216905 0.222536 0.117840
-45.147981 46.518377 12.229242 177.138285 -31.359242 -3.466732 -0.306356 19.012676 1.166334 -0.060966 2.250024 0.169236 -0.097091 3.711165 0.278023 -0.298749 16.527306 1.216734 -6.333546 21.906763 0.541845 -11.599173 5.155784 2.703354 -0.056156 2.311524 -2.406003 6.203200 -8.053778 -15.658272 -53.838217 -62.267357 101.571720 -1.932454 4.397658 -20.465347 -0.724242 0.740361 1.127340 -3.814330 -3.530395 15.176640 77.856619 -70.383351 -116.238614 -2.021193 14.162695 10.321062 -3.602981 -55.780375 -7.639700 -154.725929 79.747586 -145.519332 -8.776808 -12.378935 -5.890977 -0.067362 -0.224645 -0.015717 0.450628 -57.820890 11.057764 -111.052632 81.545407 -115.482705 4.209435 -6.305529 6.203092 0.213399 0.221944 0.115664
-45.150179 46.519781 12.232979 177.132870 -31.343439 -3.472178 -0.308224 19.005913 1.182557 -0.068196 2.260488 0.181921 -0.095438 3.709899 0.275288 -0.301152 16.532396 1.229986 -6.299783 21.867972 0.547401 -11.445115 5.034206 2.776779 -0.051547 2.304315 -2.414102 6.201282 -7.965593 -15.608749 -53.747332 -62.235750 101.526055 -1.977271 4.409106 -20.566396 -0.723726 0.733868 1.148678 -3.816626 -3.492590 15.134585 77.577966 -70.391815 -115.980028 -2.009313 14.201085 10.341372 -3.599838 -55.793698 -7.627563 -154.688708 79.755135 -145.475391 -8.789885 -12.373133 -5.904828 -0.050083 -0.226762 -0.004443 0.486718 -57.841605 11.051900 -110.992011 81.539890 -115.416964 4.207884 -6.291255 6.223660 0.205109 0.215930 0.110149
